<?xml version="1.0" encoding="utf-8"?>
<!-- Generator: Adobe Illustrator 16.0.0, SVG Export Plug-In . SVG Version: 6.00 Build 0)  -->
<!DOCTYPE svg PUBLIC "-//W3C//DTD SVG 1.1//EN" "http://www.w3.org/Graphics/SVG/1.1/DTD/svg11.dtd">
<svg version="1.1" id="Capa_1" xmlns="http://www.w3.org/2000/svg" xmlns:xlink="http://www.w3.org/1999/xlink" x="0px" y="0px"
	 width="50px" height="50px" viewBox="174.403 174.402 50 50" enable-background="new 174.403 174.402 50 50" xml:space="preserve">
<g>
	<g>
		<path d="M210.149,194.117c-1.114-4.823-2.228-9.645-3.342-14.468c-1.881,0-3.76,0-5.64,0c0.269,4.823,0.537,9.646,0.807,14.468
			H210.149z"/>
		<path d="M202.403,201.815c0.354,6.338,0.707,12.676,1.061,19.014c4.284,0,8.567,0,12.851,0
			c-1.462-6.338-2.925-12.676-4.389-19.014H202.403z"/>
		<path d="M197.576,179.649c-1.88,0-3.76,0-5.639,0c-1.114,4.823-2.227,9.646-3.34,14.468h8.174
			C197.038,189.294,197.307,184.472,197.576,179.649z"/>
		<path d="M182.429,220.829c4.283,0,8.567,0,12.851,0c0.354-6.338,0.708-12.676,1.061-19.014h-9.522
			C185.357,208.153,183.893,214.491,182.429,220.829z"/>
		<path d="M221.276,196.116h-43.808c-0.288,0-0.52,0.223-0.52,0.5v2.702c0,0.275,0.232,0.499,0.52,0.499h2.817v4.046
			c0,0.276,0.233,0.5,0.521,0.5h2.811c0.238,0,0.446-0.155,0.504-0.377l1.104-4.169h28.294l1.104,4.169
			c0.059,0.223,0.267,0.377,0.504,0.377h2.811c0.288,0,0.521-0.224,0.521-0.5v-4.046h2.816c0.288,0,0.521-0.224,0.521-0.499v-2.702
			C221.796,196.339,221.564,196.116,221.276,196.116z"/>
	</g>
</g>
</svg>
