<?xml version="1.0" encoding="utf-8"?>
<!-- Generator: Adobe Illustrator 16.0.0, SVG Export Plug-In . SVG Version: 6.00 Build 0)  -->
<!DOCTYPE svg PUBLIC "-//W3C//DTD SVG 1.1//EN" "http://www.w3.org/Graphics/SVG/1.1/DTD/svg11.dtd">
<svg version="1.1" id="Capa_1" xmlns="http://www.w3.org/2000/svg" xmlns:xlink="http://www.w3.org/1999/xlink" x="0px" y="0px"
	 width="50px" height="50px" viewBox="260.819 260.818 50 50" enable-background="new 260.819 260.818 50 50" xml:space="preserve">
<g>
	<g id="Layer_2_29_">
		<path d="M308.609,288.181h-4.068c-0.227,0-0.51,0.191-0.634,0.35l-1.177,1.529c-0.124,0.16-0.232,0.459-0.274,0.646
			c-0.198,0.871-1.22,3.118-6.462,3.118c-6.527,0-5.949-8.221-5.744-10.014c0.022-0.189-0.065-0.466-0.198-0.618l-4.396-5.104
			c-0.137-0.153-0.428-0.406-0.653-0.406h-2.442c-0.226,0-0.521,0.009-0.662-0.139l-2.749-2.893c-0.14-0.15-0.436-0.249-0.66-0.249
			h-3.256c-0.224,0-0.628,0.241-0.628,0.433v0.69c0,0.192,0.038,0.189-0.186,0.189h-2.443c-0.226,0-0.55-0.017-0.725-0.137
			l-3.435-2.301c-0.174-0.119-0.5-0.185-0.724-0.185h-4.07c-0.225,0-0.359,0.158-0.3,0.342l2.228,7.066
			c0.06,0.184-0.075,0.466-0.3,0.466h-1.627c-0.225,0-0.279-0.019-0.12,0.115l2.682,2.211c0.159,0.136,0.38,0.312,0.497,0.477
			l4.465,6.314c0.115,0.163,0.372,0.227,0.574,0.142l0.9-0.381c0.2-0.085,0.294-0.296,0.208-0.473l-5.387-11.237
			c-0.087-0.176,0.026-0.45,0.251-0.45h0.815c0.224,0,0.508,0.26,0.632,0.417l7.689,9.853c0.124,0.159,0.276,0.47,0.337,0.652
			l1.405,4.188c0.062,0.182,0.262,0.429,0.446,0.538l7.473,4.444c0.183,0.107,0.513,0.167,0.733,0.129l7.238-1.284
			c0.221-0.039,0.556,0.009,0.748,0.106l3.475,1.764c0.192,0.098,0.478,0.066,0.638-0.069l1.052-0.85
			c0.159-0.136,0.471-0.205,0.694-0.205h2.444c0.225,0,0.324-0.176,0.225-0.347l-0.45-0.787c-0.101-0.171-0.054-0.426,0.104-0.561
			l5.124-4.353c0.159-0.136,0.331-0.398,0.387-0.583l0.615-2.156C308.971,288.395,308.835,288.181,308.609,288.181z"/>
	</g>
</g>
</svg>
