<?xml version="1.0" encoding="utf-8"?>
<!-- Generator: Adobe Illustrator 16.0.0, SVG Export Plug-In . SVG Version: 6.00 Build 0)  -->
<!DOCTYPE svg PUBLIC "-//W3C//DTD SVG 1.1//EN" "http://www.w3.org/Graphics/SVG/1.1/DTD/svg11.dtd">
<svg version="1.1" id="Capa_1" xmlns="http://www.w3.org/2000/svg" xmlns:xlink="http://www.w3.org/1999/xlink" x="0px" y="0px"
	 width="50px" height="50px" viewBox="272.64 395.945 50 50" enable-background="new 272.64 395.945 50 50" xml:space="preserve">
<g>
	<g>
		<path fill="#010002" d="M308.894,404.134c-3.228,0-6.464-2.922-10.6-2.52c-0.054-0.329-0.278-0.976-1.154-0.976
			c-1.175,0-1.175,1.165-1.175,1.165v27.958c0,0,0,1.165,1.175,1.165c1.177,0,1.177-1.165,1.177-1.165v-11.839
			c4.125-0.391,7.352,2.522,10.577,2.522c3.527,0,7.053-2.331,7.053-2.331v-16.311C315.947,401.804,312.421,404.134,308.894,404.134
			z"/>
		<path fill="#010002" d="M300.665,426.327v1.203c7.394,0.4,12.931,2.028,12.931,3.98c0,2.255-7.369,4.078-16.456,4.078
			c-9.087,0-16.455-1.823-16.455-4.078c0-1.952,5.538-3.582,12.929-3.98v-1.203c-8.699,0.512-15.281,2.887-15.281,5.741
			c0,3.23,8.421,5.85,18.806,5.85c10.389,0,18.807-2.619,18.807-5.85C315.947,429.212,309.365,426.839,300.665,426.327z"/>
	</g>
</g>
</svg>
