<?xml version="1.0" encoding="utf-8"?>
<!-- Generator: Adobe Illustrator 16.0.0, SVG Export Plug-In . SVG Version: 6.00 Build 0)  -->
<!DOCTYPE svg PUBLIC "-//W3C//DTD SVG 1.1//EN" "http://www.w3.org/Graphics/SVG/1.1/DTD/svg11.dtd">
<svg version="1.1" id="Capa_1" xmlns="http://www.w3.org/2000/svg" xmlns:xlink="http://www.w3.org/1999/xlink" x="0px" y="0px"
	 width="50px" height="50px" viewBox="-3.648 -3.648 50 50" enable-background="new -3.648 -3.648 50 50" xml:space="preserve">
<g>
	<path d="M42.626,12.823c-0.006-0.022-0.021-0.042-0.025-0.064c-0.031-0.102-0.072-0.199-0.126-0.293
		c0-0.004-0.002-0.007-0.004-0.01c-0.02-0.033-0.043-0.061-0.063-0.093c-0.047-0.074-0.094-0.149-0.149-0.217
		c-0.042-0.049-0.09-0.089-0.134-0.134c-0.045-0.044-0.088-0.092-0.139-0.133c-0.063-0.054-0.141-0.097-0.209-0.14
		c-0.034-0.021-0.063-0.047-0.1-0.066L26.324,3.538c-0.551-0.292-1.205-0.297-1.761-0.017l-3.394,1.721l-9.416-4.714
		c-0.557-0.281-1.216-0.271-1.767,0.026L-0.642,6.297c-0.637,0.343-1.033,1.019-1.024,1.75c0.008,0.731,0.417,1.397,1.063,1.727
		l16.124,8.242L0.412,26.282c-0.036,0.021-0.063,0.045-0.098,0.064c-0.072,0.046-0.146,0.091-0.211,0.148
		c-0.052,0.043-0.095,0.093-0.142,0.14c-0.042,0.048-0.087,0.085-0.126,0.132c-0.058,0.072-0.106,0.152-0.151,0.232
		c-0.019,0.026-0.041,0.054-0.057,0.084c-0.002,0.004-0.002,0.006-0.004,0.008c-0.055,0.107-0.098,0.219-0.134,0.329
		c-0.021,0.068-0.032,0.14-0.047,0.208c-0.011,0.065-0.028,0.125-0.035,0.191c-0.007,0.069-0.001,0.142-0.001,0.209
		c0.001,0.061-0.004,0.113,0.001,0.173c0.009,0.089,0.03,0.173,0.051,0.262c0.009,0.034,0.011,0.071,0.022,0.108
		c0.038,0.119,0.087,0.242,0.147,0.357c0.001,0.003,0.002,0.005,0.002,0.007c0.005,0.01,0.012,0.015,0.016,0.022
		c0.071,0.132,0.163,0.253,0.265,0.368c0.03,0.032,0.062,0.064,0.093,0.097c0.086,0.082,0.182,0.156,0.284,0.226
		c0.033,0.022,0.063,0.046,0.098,0.066c0.012,0.006,0.021,0.019,0.034,0.021l19.193,10.413c0.083,0.045,0.171,0.067,0.257,0.101
		c0.055,0.021,0.107,0.048,0.163,0.065c0.163,0.043,0.327,0.066,0.491,0.066c0.002,0,0.004,0,0.004,0
		c0.156,0,0.319-0.021,0.477-0.064c0.053-0.013,0.102-0.036,0.152-0.058c0.082-0.026,0.165-0.051,0.243-0.09l19.074-9.811
		c0.952-0.492,1.332-1.67,0.846-2.634c-0.021-0.045-0.054-0.082-0.079-0.125c-0.117-0.555-0.467-1.06-1.01-1.338l-9.574-4.892
		l11.033-6.228c0.004-0.002,0.008-0.004,0.012-0.006l0.02-0.009c0.022-0.016,0.045-0.035,0.068-0.051
		c0.08-0.052,0.158-0.103,0.238-0.166c0.043-0.036,0.075-0.082,0.115-0.123c0.051-0.049,0.104-0.096,0.146-0.15
		c0.051-0.067,0.094-0.138,0.136-0.209c0.021-0.036,0.047-0.065,0.065-0.104c0.002-0.003,0.002-0.007,0.004-0.01
		c0.045-0.085,0.074-0.175,0.107-0.267c0.077-0.23,0.107-0.466,0.102-0.701c0-0.052,0.006-0.101,0-0.149
		C42.688,13.069,42.663,12.945,42.626,12.823z M4.469,7.977l6.465-3.492l6.122,3.065l-6.307,3.638L4.469,7.977z M35.784,28.373
		l-15.235,7.836L5.417,28l14.313-7.834L35.784,28.373z M26.491,19.233l-5.896-3.012l-5.703-2.915l7.196-4.15l3.316-1.683
		l11.306,5.99L26.491,19.233z"/>
</g>
</svg>
