<?xml version="1.0" encoding="utf-8"?>
<!-- Generator: Adobe Illustrator 16.0.0, SVG Export Plug-In . SVG Version: 6.00 Build 0)  -->
<!DOCTYPE svg PUBLIC "-//W3C//DTD SVG 1.1//EN" "http://www.w3.org/Graphics/SVG/1.1/DTD/svg11.dtd">
<svg version="1.1"
	 id="svg2" xmlns:dc="http://purl.org/dc/elements/1.1/" xmlns:cc="http://web.resource.org/cc/" xmlns:inkscape="http://www.inkscape.org/namespaces/inkscape" xmlns:sodipodi="http://sodipodi.sourceforge.net/DTD/sodipodi-0.dtd" xmlns:svg="http://www.w3.org/2000/svg" xmlns:rdf="http://www.w3.org/1999/02/22-rdf-syntax-ns#" sodipodi:docbase="C:\Dokumente und Einstellungen\ulfl\Eigene Dateien\svn.openstreetmap.org\applications\share\map-icons\svg" inkscape:output_extension="org.inkscape.output.svg.inkscape" sodipodi:docname="vehicle.svg" inkscape:version="0.45.1" sodipodi:version="0.32"
	 xmlns="http://www.w3.org/2000/svg" xmlns:xlink="http://www.w3.org/1999/xlink" x="0px" y="0px" width="50px" height="50px"
	 viewBox="475 375 50 50" enable-background="new 475 375 50 50" xml:space="preserve">
<sodipodi:namedview  guidetolerance="10.0" objecttolerance="10.0" borderopacity="1.0" gridtolerance="10.0" inkscape:cy="400" inkscape:cx="500" inkscape:zoom="0.47125" pagecolor="#ffffff" bordercolor="#666666" id="base" inkscape:window-width="797" inkscape:pageshadow="2" inkscape:window-height="573" inkscape:current-layer="svg2" inkscape:window-y="58" inkscape:window-x="44" inkscape:pageopacity="0.0">
	</sodipodi:namedview>
<path id="Car" d="M475.715,403.694c-0.123-7.636-0.613-1.065,4.834-12.387c3.941-7.694-0.053-5.623,20.335-5.904
	c18.146,0.311,14.485-1.909,18.653,6.26c5.22,10.463,4.817,4.987,4.782,11.81c-0.192,7.487,3.082,5.563-24.381,5.814
	C472.685,408.977,475.907,410.931,475.715,403.694z M481.232,396.324l3.731-7.28c0.696-1.293,0.474-1.103,2.102-1.109l26.083-0.002
	c1.412,0.004,1.205-0.073,1.787,1.065l3.71,7.238L481.232,396.324z M478.564,410.123l6.978-0.014
	c-0.022,7.401,0.704,6.988-3.1,7.036C477.91,417.131,478.626,417.518,478.564,410.123z M514.493,410.176h6.988
	c-0.046,7.412,0.592,6.905-3.362,6.925C514.031,417.055,514.549,417.601,514.493,410.176z"/>
<ellipse id="LeftLamp" fill="#FFFFFF" cx="482.033" cy="401.772" rx="3.407" ry="2.878"/>
<ellipse id="RightLamp" fill="#FFFFFF" cx="517.896" cy="401.772" rx="3.407" ry="2.878"/>
</svg>
